<svg width="67" height="60" viewBox="0 0 67 60" fill="none" xmlns="http://www.w3.org/2000/svg">
<path d="M15.8623 45.656C15.8623 46.008 15.6703 46.408 15.2863 46.856C14.9343 47.272 14.4543 47.48 13.8463 47.48C13.2703 47.48 12.8063 47.272 12.4543 46.856C12.1343 46.408 11.9583 46.008 11.9263 45.656C11.9263 45.304 11.9263 44.952 11.9263 44.6C11.9263 44.248 11.9583 43.048 12.0223 41C12.0863 38.92 12.1183 34.92 12.1183 29C12.1183 23.08 12.2943 19.096 12.6463 17.048C10.9503 16.92 9.07825 16.552 7.03025 15.944C3.25425 14.792 1.36625 13.544 1.36625 12.2C1.33425 11.464 1.65425 10.92 2.32625 10.568C2.64625 10.408 2.95025 10.328 3.23825 10.328C3.55825 10.328 3.87825 10.456 4.19825 10.712C4.67825 10.968 5.09425 11.224 5.44625 11.48C6.69425 12.344 9.33425 13.08 13.3663 13.688C14.1983 11.992 15.4943 10.696 17.2543 9.8C19.0143 8.872 20.8863 8.408 22.8703 8.408C24.8863 8.408 26.4383 8.856 27.5262 9.752C28.6783 10.616 29.2543 11.64 29.2543 12.824C29.2543 13.976 28.5983 15.048 27.2863 16.04C25.9743 17.032 23.6543 17.528 20.3263 17.528C18.5023 17.528 17.0783 17.48 16.0543 17.384C15.7343 18.344 15.5743 21.56 15.5743 27.032C15.5743 32.504 15.6223 36.888 15.7183 40.184C15.8143 43.48 15.8623 45.304 15.8623 45.656ZM22.5343 11.768C19.8463 11.768 17.9583 12.536 16.8703 14.072C17.7023 14.232 18.6143 14.312 19.6063 14.312C20.5983 14.312 21.8463 14.168 23.3503 13.88C24.8863 13.592 25.6543 13.224 25.6543 12.776C25.6543 12.104 24.6143 11.768 22.5343 11.768Z" fill="#44B0FD"/>
<path d="M42.5858 14.744C42.5858 16.568 42.6498 19.72 42.7778 24.2C44.6018 24.392 46.3458 25.016 48.0098 26.072C49.7058 27.128 51.0498 28.376 52.0418 29.816C53.6098 28.856 54.8578 27.624 55.7858 26.12C56.7138 24.584 57.1778 23.016 57.1778 21.416C57.1778 19.016 56.2498 17.128 54.3938 15.752C52.5378 14.344 50.2338 13.64 47.4818 13.64C45.9778 13.64 44.3458 14.008 42.5858 14.744ZM42.7298 27.32V31.832C43.4658 31.896 44.3778 31.928 45.4658 31.928C46.5538 31.928 47.6418 31.72 48.7298 31.304C47.3538 29.256 45.3538 27.928 42.7298 27.32ZM39.4178 31.496V27.128C37.5298 27.384 36.5858 28.024 36.5858 29.048C36.5858 30.04 37.5298 30.856 39.4178 31.496ZM64.7618 47.288C65.3058 47.288 65.5778 47.368 65.5778 47.528V47.768C65.5778 48.6 65.2898 49.336 64.7138 49.976C64.1698 50.648 63.6098 50.984 63.0338 50.984C62.4578 50.984 61.8178 50.792 61.1138 50.408C60.4098 50.024 59.4818 49.048 58.3298 47.48C57.2098 45.912 56.0578 43.992 54.8738 41.72L50.4578 33.992C48.4738 34.696 46.4418 35.048 44.3618 35.048C43.5298 35.048 43.0018 35.032 42.7778 35L43.0658 45.032C43.0658 45.768 42.8898 46.36 42.5378 46.808C42.1858 47.256 41.7058 47.48 41.0978 47.48C40.4898 47.48 40.0098 47.256 39.6578 46.808C39.3058 46.36 39.1298 45.56 39.1298 44.408C39.1298 43.224 39.1938 39.96 39.3218 34.616C37.3378 34.168 35.8338 33.448 34.8098 32.456C33.7858 31.464 33.2738 30.328 33.2738 29.048C33.2738 27.768 33.8338 26.648 34.9538 25.688C36.1058 24.728 37.5618 24.168 39.3218 24.008L38.9378 14.456C38.9378 13.08 39.4978 12.12 40.6178 11.576C42.5378 10.712 44.8418 10.28 47.5298 10.28C51.4338 10.28 54.6338 11.336 57.1298 13.448C59.6578 15.56 60.9218 18.184 60.9218 21.32C60.9218 23.528 60.2658 25.656 58.9538 27.704C57.6738 29.72 55.9458 31.352 53.7698 32.6C57.3858 39.128 59.4978 42.856 60.1058 43.784C61.5778 46.024 63.0018 47.192 64.3778 47.288H64.7618Z" fill="#FFD475"/>
</svg>
